<svg id="Icons" xmlns="http://www.w3.org/2000/svg" viewBox="0 0 66 66"><defs><style>.cls-1{fill:#189f99;}.cls-2{fill:#1cbbb4;}.cls-3{opacity:0.15;}.cls-4{fill:#fffcf2;}.cls-5{fill:#edc03d;}.cls-6{fill:#344e5f;}</style></defs><title>lock</title><g id="Lock"><g id="Circle_Shadow" data-name="Circle Shadow"><circle class="cls-1" cx="33" cy="34" r="31"/></g><g id="Circle"><circle class="cls-2" cx="33" cy="32" r="31"/></g><path id="Long_Shadow" data-name="Long Shadow" class="cls-3" d="M62.44,41.71,39.36,18.63,37.7,20.14l-5.89-2.2-5.91,5.16V34.5L20.58,47.4,36,62.85A31,31,0,0,0,62.44,41.71Z"/><g id="Top"><path class="cls-4" d="M33,16a9,9,0,0,0-9,9V39a9,9,0,0,0,18,0V25A9,9,0,0,0,33,16Zm5,23a5,5,0,0,1-10,0V25a5,5,0,0,1,10,0Z"/></g><g id="Bottom"><rect class="cls-5" x="20" y="30" width="26" height="18" rx="2" ry="2"/></g><g id="Holes"><path class="cls-6" d="M36,38a3,3,0,1,0-4.87,2.32,2,2,0,1,0,3.75,0A3,3,0,0,0,36,38Z"/></g></g></svg>